<svg width="120" height="40" viewBox="0 0 200 60" fill="none" xmlns="http://www.w3.org/2000/svg">
  <g>
    <!-- Icon Circle Background -->
    <circle cx="30" cy="30" r="20" fill="#4D5DFB"></circle>
    
    <!-- Chain Link Symbol -->
    <path d="M24 32c0 3 2 5 5 5h2v-3h-2c-1 0-2-1-2-2s1-2 2-2h2v-3h-2c-3 0-5 2-5 5zm8-1v3h2c1 0 2 1 2 2s-1 2-2 2h-2v3h2c3 0 5-2 5-5s-2-5-5-5h-2z" fill="white"></path>
  </g>
  
  <!-- Text -->
  <text x="60" y="36" font-family="Poppins, sans-serif" font-size="22" fill="#0A0A0A" font-weight="bold">
    DocLink
  </text>
</svg>
